<svg width="50" height="50" viewBox="0 0 32 32" fill="none" xmlns="http://www.w3.org/2000/svg">
<path d="M4 16V28H16H28V16V4H16H4V16Z" fill="#007ACC"/>
<path d="M9.30731 16.0794L9.29969 17.0623H10.8616H12.4235V21.5004V25.9385H13.5283H14.633V21.5004V17.0623H16.1949H17.7568V16.0985C17.7568 15.5651 17.7454 15.1194 17.7302 15.108C17.7187 15.0928 15.8178 15.0851 13.513 15.089L9.31874 15.1004L9.30731 16.0794Z" fill="white"/>
<path d="M23.3657 15.0729C23.9753 15.2253 24.44 15.4957 24.8667 15.9376C25.0876 16.1738 25.4153 16.6043 25.4419 16.7072C25.4495 16.7376 24.4057 17.4386 23.7734 17.831C23.7505 17.8462 23.6591 17.7472 23.5562 17.5948C23.2476 17.1453 22.9238 16.951 22.4286 16.9167C21.701 16.8672 21.2324 17.2481 21.2362 17.8843C21.2362 18.071 21.2629 18.1814 21.3391 18.3338C21.4991 18.6653 21.7962 18.8633 22.7295 19.2672C24.4476 20.0062 25.1829 20.4938 25.64 21.1872C26.1505 21.9605 26.2648 23.1948 25.9181 24.1129C25.5372 25.111 24.5924 25.7891 23.2629 26.0138C22.8514 26.0862 21.8762 26.0748 21.4343 25.9948C20.4705 25.8233 19.5562 25.3472 18.9924 24.7224C18.7714 24.4786 18.341 23.8424 18.3676 23.7967C18.3791 23.7814 18.4781 23.7205 18.5886 23.6557C18.6953 23.5948 19.0991 23.3624 19.48 23.1414L20.1695 22.7414L20.3143 22.9548C20.5162 23.2633 20.9581 23.6862 21.2248 23.8272C21.9905 24.231 23.0419 24.1738 23.56 23.7091C23.781 23.5072 23.8724 23.2976 23.8724 22.9891C23.8724 22.711 23.8381 22.5891 23.6934 22.3795C23.5067 22.1129 23.1257 21.8881 22.0438 21.4195C20.8057 20.8862 20.2724 20.5548 19.7848 20.0291C19.5029 19.7243 19.2362 19.2367 19.1257 18.8291C19.0343 18.49 19.0114 17.6405 19.0838 17.2976C19.3391 16.1014 20.2419 15.2672 21.5448 15.0195C21.9676 14.9395 22.9505 14.97 23.3657 15.0729Z" fill="white"/>
</svg>
